# AST/ASF file generated using VICON BodyLanguage
# -----------------------------------------------
:version 1.10
:name VICON
:units
  mass 1.0
  length 0.45
  angle deg
:documentation
   .ast/.asf automatically generated from VICON data using
   VICON BodyBuilder and BodyLanguage model FoxedUp or BRILLIANT.MOD
:root
   order TX TY TZ RX RY RZ
   axis XYZ
   position 0 0 0  
   orientation 0 0 0 
:bonedata
  begin
     id 1 
     name lhipjoint
     direction 0.603808 -0.713975 0.35448 
     length 2.2025 
     axis 0 0 0  XYZ
  end
  begin
     id 2 
     name lfemur
     direction 0.34202 -0.939693 0  
     length 6.55877  
     axis 0 0 20  XYZ
    dof rx ry rz
    limits (-160.0 20.0)
           (-70.0 70.0)
           (-60.0 70.0)
  end
  begin
     id 3 
     name ltibia
     direction 0.34202 -0.939693 0   
     length 6.80302   
     axis 0 0 20   XYZ
    dof rx
    limits (-10.0 170.0)
  end
  begin
     id 4 
     name lfoot
     direction 0.091848 -0.25235 0.963267   
     length 2.03446   
     axis -90 7.62852e-016 20   XYZ
    dof rx rz
    limits (-45.0 90.0)
           (-70.0 20.0)
  end
  begin
     id 5 
     name ltoes
     direction 1.53608e-011 -4.21925e-011 1   
     length 1.02033   
     axis -90 7.62852e-016 20   XYZ
    dof rx
    limits (-90.0 20.0)
  end
  begin
     id 6 
     name rhipjoint
     direction -0.587285 -0.724947 0.359928   
     length 2.16916  
     axis 0 0 0  XYZ 
  end
  begin
     id 7 
     name rfemur
     direction -0.34202 -0.939693 0   
     length 6.43173   
     axis 0 0 -20   XYZ
    dof rx ry rz
    limits (-160.0 20.0)
           (-70.0 70.0)
           (-70.0 60.0)
  end
  begin
     id 8 
     name rtibia
     direction -0.34202 -0.939693 0   
     length 6.70662   
     axis 0 0 -20   XYZ
    dof rx
    limits (-10.0 170.0)
 end
 begin
     id 9 
     name rfoot
     direction -0.11854 -0.325686 0.938018   
     length 2.0773  
     axis -90 -7.62852e-016 -20   XYZ
    dof rx rz
    limits (-45.0 90.0)
           (-20.0 70.0)
  end
  begin
     id 10 
     name rtoes
     direction -1.53547e-011 -4.21838e-011 1   
     length 1.03267   
     axis -90 -7.62852e-016 -20   XYZ
    dof rx
    limits (-90.0 20.0)
  end
  begin
     id 11 
     name lowerback
     direction -0.0286554 0.999539 0.0100613   
     length 2.08751   
     axis 0 0 0   XYZ
    dof rx ry rz
    limits (-20.0 45.0)
           (-30.0 30.0)
           (-30.0 30.0)
  end
  begin
     id 12 
     name upperback
     direction 0.0227093 0.999705 -0.00860929   
     length 2.08517   
     axis 0 0 0   XYZ
    dof rx ry rz
    limits (-20.0 45.0)
           (-30.0 30.0)
           (-30.0 30.0)
  end
  begin
     id 13 
     name thorax
     direction 0.0351627 0.999285 -0.013892   
     length 2.08412   
     axis 0 0 0   XYZ
    dof rx ry rz
    limits (-20.0 45.0)
           (-30.0 30.0)
           (-30.0 30.0)
  end
  begin
     id 14 
     name lowerneck
     direction -0.0696283 0.997344 0.0213922   
     length 1.44164   
     axis 0 0 0   XYZ
    dof rx ry rz
    limits (-20.0 45.0)
           (-30.0 30.0)
           (-30.0 30.0)
  end
  begin
     id 15 
     name upperneck
     direction 0.0531 0.990412 -0.127531   
     length 1.45022   
     axis 0 0 0   XYZ
    dof rx ry rz
    limits (-20.0 45.0)
           (-30.0 30.0)
           (-30.0 30.0)
  end
  begin
     id 16
     name head
     direction 0.0188154 0.998548 -0.0504727  
     length 1.45845  
     axis 0 0 0   XYZ
    dof rx ry rz
    limits (-20.0 45.0)
           (-30.0 30.0)
           (-30.0 30.0)
  end
  begin
     id 17 
     name lclavicle
     direction 0.961559 0.260051 0.088188  
     length 2.86057  
     axis 0 0 0   XYZ
    dof ry rz
    limits (-20.0 10.0)
           (0.0 20.0)
  end
  begin
     id 18 
     name lhumerus
     direction 1 -4.48959e-011 2.88185e-027   
     length 4.36901   
     axis 180 -30 -90   XYZ
    dof rx ry rz
    limits (-60.0 90.0)
           (-90.0 90.0)
           (-90.0 90.0)
  end
  begin
     id 19
     name lradius
     direction 1 -4.48965e-011 -3.92618e-028   
     length 3.21737   
     axis 180 -30 -90   XYZ
    dof rx
    limits (-10.0 170.0)
  end
  begin
     id 20
     name lwrist
     direction 1 -4.49037e-011 2.57246e-027   
     length 1.60869   
     axis -1.61769e-015 90 90   XYZ
    dof ry
    limits (-180.0 0.0)
 end
  begin
     id 21 
     name lhand
     direction 1 -4.48807e-011 5.12958e-027   
     length 0.564313   
     axis -3.27988e-015 90 90   XYZ
    dof rx rz
    limits (-90.0 90.0)
           (-45.0 45.0)
  end
  begin
     id 22 
     name lfingers
     direction 1 -4.48879e-011 1.02687e-026   
     length 0.454963   
     axis -6.5598e-015 90 90   XYZ
    dof rx
    limits (0.0 90.0)
  end
  begin
     id 23
     name lthumb
     direction 0.707107 -6.3475e-011 0.707107   
     length 0.653239   
     axis -90 45 2.19363e-014   XYZ
    dof rx rz
    limits (-45.0 45.0)
           (-45.0 45.0)
  end
  begin
     id 24 
     name rclavicle
     direction -0.954677 0.253915 0.155304   
     length 3.11497  
     axis 0 0 0   XYZ 
    dof ry rz
    limits (-10.0 20.0)
           (-20.0 0.0)
  end
  begin
     id 25 
     name rhumerus
     direction -1 -4.48958e-011 -8.20169e-028  
     length 4.34118   
     axis 180 30 90   XYZ
    dof rx ry rz
    limits (-90.0 60.0)
           (-90.0 90.0)
           (-90.0 90.0)
  end
  begin
     id 26 
     name rradius
     direction -1 -4.48978e-011 1.5676e-027   
     length 3.09531   
     axis 180 30 90   XYZ
    dof rx
    limits (-10.0 170.0)
  end
  begin
     id 27 
     name rwrist
     direction -1 -4.49001e-011 2.57123e-027   
     length 1.54765   
     axis -1.61769e-015 -90 -90   XYZ
    dof ry
    limits (-180.0 0.0)
  end
  begin
     id 28
     name rhand
     direction -1 -4.48847e-011 5.13225e-027   
     length 0.597446   
     axis -3.27988e-015 -90 -90   XYZ
    dof rx rz
    limits (-90.0 90.0)
           (-45.0 45.0)
  end
  begin
     id 29
     name rfingers
     direction -1 -4.49094e-011 1.02974e-026   
     length 0.481677   
     axis -6.5598e-015 -90 -90   XYZ
    dof rx
    limits (0.0 90.0)
  end
  begin
     id 30
     name rthumb
     direction -0.707107 -6.34859e-011 0.707107   
     length 0.691594   
     axis -90 -45 -2.19363e-014   XYZ
    dof rx rz
    limits (-45.0 45.0)
           (-45.0 45.0)
  end
:hierarchy
  begin
    root lhipjoint rhipjoint lowerback
    lhipjoint lfemur
    lfemur ltibia
    ltibia lfoot
    lfoot ltoes
    rhipjoint rfemur
    rfemur rtibia
    rtibia rfoot
    rfoot rtoes
    lowerback upperback
    upperback thorax
    thorax lowerneck lclavicle rclavicle
    lowerneck upperneck
    upperneck head
    lclavicle lhumerus
    lhumerus lradius
    lradius lwrist
    lwrist lhand lthumb
    lhand lfingers
    rclavicle rhumerus
    rhumerus rradius
    rradius rwrist
    rwrist rhand rthumb
    rhand rfingers
  end

#!OML:ASF I:\Acrobat_Osman\acrobat\cartwheel_test 2\Patient 1\Session 1\acrobat.ASF
:FULLY-SPECIFIED
:DEGREES
35
root 10.4805 13.769 33.6037 -94.2839 2.56227 129.037
lowerback 21.7389 -1.46345 9.92219
upperback -2.42671 1.6336 10.3734
thorax -15.3146 0.326423 5.98237
lowerneck -8.2009 -5.35395 -1.84657
upperneck -16.3082 -6.66249 8.39616
head -3.56512 -3.82442 3.1813
rclavicle 3.18055e-015 8.42847e-014
rhumerus 66.5671 -35.8473 -62.2005
rradius 29.4401
rwrist 1.38683
rhand -48.054 52.8305
rfingers 7.12502
rthumb -20.7203 23.9166
lclavicle 3.18055e-015 8.42847e-014
lhumerus 58.2133 37.4338 8.15047
lradius 48.7514
lwrist 24.0006
lhand -34.7961 38.5164
lfingers 7.12502
lthumb -7.94802 68.347
rfemur -71.0766 -24.3819 -14.7341
rtibia 60.97
rfoot -36.6649 -7.14336
rtoes -0.445101
lfemur 14.4563 -2.75625 -25.0621
ltibia 8.74653e-015
lfoot 25.5051 22.5291
ltoes -3.2648
36
root 10.5704 13.9559 32.9819 -91.5598 6.74154 126.757
lowerback 20.8961 -1.54141 9.82119
upperback -3.07932 1.50944 10.2027
thorax -15.6072 0.293746 5.89052
lowerneck -8.14943 -4.46875 -2.04774
upperneck -17.355 -5.56747 7.88076
head -4.03025 -3.32962 3.1062
rclavicle 6.36111e-014 -8.26944e-014
rhumerus 67.1793 -35.6198 -60.4037
rradius 31.2678
rwrist 2.93061
rhand -49.3139 58.7245
rfingers 7.12502
rthumb -21.9304 29.9475
lclavicle 6.36111e-014 -8.26944e-014
lhumerus 56.4548 37.8332 7.61918
lradius 49.6322
lwrist 25.8352
lhand -34.7107 39.2831
lfingers 7.12502
lthumb -7.86556 69.1168
rfemur -64.728 -21.3326 -23.5739
rtibia 53.93
rfoot -35.6323 -12.3863
rtoes 1.76028
lfemur 16.2961 -5.31531 -24.7971
ltibia -3.18055e-014
lfoot 27.5403 27.3685
ltoes 2.24384
37
root 10.6462 14.1756 32.2494 -88.703 10.8147 125.013
lowerback 19.5676 -1.44978 9.91608
upperback -3.66491 1.54822 10.1574
thorax -15.5214 0.31183 5.74776
lowerneck -9.3791 -3.87579 -1.66566
upperneck -16.5578 -4.93602 6.87955
head -3.58686 -2.9729 2.6172
rclavicle -1.94014e-013 -4.77083e-014
rhumerus 67.5814 -35.6394 -58.689
rradius 33.9594
rwrist 3.73952
rhand -49.7651 61.5069
rfingers 7.12502
rthumb -22.3637 32.7813
lclavicle -1.94014e-013 -4.77083e-014
lhumerus 55.3312 38.4493 7.83547
lradius 49.9153
lwrist 27.2622
lhand -34.5129 40.1653
lfingers 7.12502
lthumb -7.67464 70.0061
rfemur -57.1694 -14.214 -34.2472
rtibia 46.1928
rfoot -35.9859 -19.5203
rtoes 5.26878
lfemur 17.3314 -7.57855 -24.604
ltibia -4.77083e-015
lfoot 32.0535 30.214
ltoes 1.79143
38
root 10.7212 14.3409 31.5803 -85.8591 14.891 124.024
lowerback 17.3053 -0.926198 9.55081
upperback -2.05398 1.52909 10.5584
thorax -12.2394 0.373846 6.12107
lowerneck -18.9875 -2.73323 -1.30888
upperneck -14.6127 -4.02502 6.01352
head -1.43456 -2.57758 2.00519
rclavicle -1.30403e-013 -1.20861e-013
rhumerus 72.1629 -37.2692 -60.9383
rradius 38.0183
rwrist 5.01852
rhand -49.7002 62.5921
rfingers 7.12502
rthumb -22.3014 33.8591
lclavicle -1.30403e-013 -1.20861e-013
lhumerus 54.8189 43.1328 8.78838
lradius 49.8083
lwrist 28.3793
lhand -34.7262 40.9889
lfingers 7.12502
lthumb -7.88055 70.8221
rfemur -50.8073 0.521216 -48.0146
rtibia 39.3623
rfoot -41.7328 -29.3671
rtoes 14.6081
lfemur 18.399 -9.42085 -24.0621
ltibia -7.95139e-014
lfoot 35.8953 33.5977
ltoes 5.52627
39
root 10.7986 14.4452 31.0005 -83.331 18.6545 123.274
lowerback 15.529 -0.813606 8.30322
upperback -2.63246 1.3131 11.8547
thorax -11.9348 0.426359 8.38664
lowerneck -17.6263 -1.89042 -3.16488
upperneck -14.5733 -2.65227 5.56455
head -1.6637 -1.82362 2.26681
rclavicle 2.22639e-014 -2.22639e-014
rhumerus 71.7448 -35.3377 -56.0738
rradius 39.4557
rwrist 3.94127
rhand -50.0613 65.4876
rfingers 7.12502
rthumb -22.648 36.7964
lclavicle 2.22639e-014 -2.22639e-014
lhumerus 48.8582 42.9146 5.87906
lradius 50.4991
lwrist 31.0798
lhand -35.3209 42.0049
lfingers 7.12502
lthumb -8.4545 71.8156
rfemur -49.9014 27.0738 -67.2678
rtibia 34.1736
rfoot -69.9895 -32.8385
rtoes 28.0223
lfemur 19.4461 -11.18 -23.0873
ltibia -4.77083e-014
lfoot 44.6593 28.6918
ltoes -0.554097
